<?xml version="1.0" encoding="UTF-8"?><svg id="Layer_1" xmlns="http://www.w3.org/2000/svg" viewBox="0 0 1118.33 117.39"><g><path d="M394.45,91.66V30.08c.59-.06,1.12-.16,1.65-.16,12.19,.04,24.38-.05,36.56,.19,5.74,.12,11.32,1.46,16.45,4.23,8.4,4.55,12.34,12.03,13.02,21.13,.37,5,.12,10.21-.86,15.13-2.38,11.91-10.73,17.88-22.11,20.01-4.19,.78-8.53,.94-12.81,1-9.72,.14-19.44,.04-29.16,.04h-2.73Zm24.61-20.15c3.31,0,6.33,.11,9.35-.03,4-.19,7.53-1.63,8.76-5.72,1.36-4.5,1.58-9.17-1.88-13.01-.94-1.04-2.5-1.95-3.86-2.1-4.06-.46-8.17-.51-12.37-.72v21.58Z"/><path d="M232.74,52.49c-7.81,0-15.45,.02-23.09-.04-.57,0-1.25-.49-1.69-.93-5.36-5.45-16.25-3.79-19.74,3.03-2.35,4.61-1.49,11.24,1.9,14.69,3.5,3.56,10.19,4.67,14.86,2.45,1.83-.87,3.35-2.04,4-4.38h-10.57v-10.83h34.11v35.03h-12.09c-.11-2.28-.23-4.53-.36-7.22-4.09,4.46-8.76,7.07-14.2,8.46-17.62,4.5-35.56-5.25-40.98-22.35-5.73-18.07,5.18-37.56,23.76-41.9,12.04-2.81,23.56-1.26,33.94,5.86,5.94,4.08,9.76,11.07,10.13,18.12Z"/><path d="M351.8,93.88c-8.62-.2-16.74-1.9-23.83-7.1-7.54-5.54-11.2-13.26-12.03-22.34-.64-7.05,.27-13.96,3.8-20.28,4.35-7.78,11.05-12.53,19.61-14.71,10.89-2.77,21.63-2.44,31.84,2.56,10.21,5,15.38,13.58,16.47,24.75,.85,8.73-.59,16.93-5.96,24.11-5.34,7.13-12.77,10.73-21.36,12.16-2.81,.47-5.69,.57-8.53,.84Zm-11.7-33.07c0,7.24,4.75,12.17,11.75,12.2,6.93,.03,11.85-4.99,11.87-12.13,.02-7.39-4.7-12.23-11.91-12.21-7.08,.01-11.72,4.82-11.71,12.14Z"/><path d="M274.69,93.93c-7.87-.2-15.39-1.65-22.05-5.98-9.46-6.13-13.56-15.22-13.83-26.22-.47-18.88,11.97-32.28,30.87-33.66,7.99-.58,15.73,0,23.1,3.25,11.94,5.26,18.6,16.55,18.09,30.3-.63,16.79-9.77,27.75-26.24,31.21-3.24,.68-6.62,.75-9.93,1.1Zm12.01-33.17c0-7.23-4.73-12.09-11.79-12.09-7.13,0-11.82,4.74-11.88,12.02-.06,7.28,4.86,12.38,11.92,12.33,6.92-.05,11.75-5.08,11.75-12.25Z"/></g><g><path d="M1118.33,91.51h-10.97c-.22-2.37-.43-4.62-.62-6.61-2.93,1.92-5.73,4.36-8.97,5.77-20.07,8.66-43.63-2.62-47.24-25.32-2.98-18.72,10.04-35.32,29.11-37.88,8.14-1.09,16.05-.05,23.59,3.12,7.04,2.95,12.04,8.09,15.1,15.09v6.68c-7.01,0-14.02,.02-21.02-.05-.84,0-1.9-.29-2.49-.84-4.07-3.88-10.79-4.53-15.9-1.43-4.35,2.63-6.38,8.63-4.77,14.08,2.27,7.69,12.2,11.25,18.81,6.65,1.13-.79,1.94-2.06,2.89-3.1l-.43-.63h-10.36v-10.84h33.27v35.33Z"/><path d="M974.49,91.31V29.65c3.77,0,7.42,0,11.07,0,4.86,0,9.73,.09,14.58-.05,1.72-.05,2.55,.61,3.31,2.01,4.34,8.11,8.73,16.2,13.19,24.25,.49,.89,1.58,1.45,2.38,2.17l.69-.51V29.8h23.64v61.49c-.28,.07-.57,.21-.85,.21-8.29,.02-16.58,.07-24.87-.06-.81-.01-1.9-.94-2.35-1.73-4.68-8.11-9.23-16.3-13.9-24.42-.52-.91-1.56-1.53-2.36-2.28l-.7,.51v27.79h-23.84Z"/><path d="M891.79,60.56c.05,17.61-10.93,30.1-28.45,32.41-9.32,1.23-18.43,.68-26.95-3.65-10.49-5.34-15.66-14.22-16.52-25.76-.57-7.62,.63-14.9,4.87-21.41,5.65-8.67,14.16-12.68,24.07-14.1,7.16-1.02,14.27-.57,21.21,1.65,13.91,4.45,21.73,15.54,21.77,30.86Zm-24.11,.16c.05-7.2-4.58-12.13-11.43-12.18-7.57-.06-12.33,4.59-12.3,12.03,.02,7.17,4.87,12.19,11.8,12.23,6.92,.04,11.89-5,11.94-12.08Z"/><path d="M941.46,29.78h24.2c.07,.37,.21,.74,.21,1.1,0,11.54,.2,23.08-.08,34.61-.39,16.14-7.27,24.3-23.07,27.18-8.83,1.61-17.76,1.38-26.47-1.17-10.33-3.02-17-10.7-17.37-21.4-.46-13.34-.11-26.7-.11-40.26h24.09c0,.92,0,1.77,0,2.63,0,9.87-.03,19.74,.03,29.6,.01,1.89,.12,3.85,.64,5.65,1.22,4.23,5.14,6.24,10.32,5.57,4.4-.57,7.41-3.51,7.48-7.9,.16-10.5,.11-21.01,.14-31.51,0-1.33,0-2.66,0-4.12Z"/><path d="M799.29,91.41h-24.38c0-5.65,.08-11.19-.05-16.74-.03-1.42-.45-2.99-1.16-4.21-7.6-13.02-15.3-25.98-22.97-38.97-.28-.47-.5-.96-.88-1.68,.78-.07,1.37-.16,1.95-.17,7.09-.01,14.19,.06,21.28-.05,1.62-.02,2.42,.55,3.14,1.88,3.03,5.67,6.13,11.3,9.27,16.9,.37,.65,1.13,1.35,1.8,1.47,.42,.08,1.19-.81,1.53-1.41,3.23-5.74,6.36-11.53,9.64-17.24,.41-.72,1.49-1.48,2.27-1.49,7.81-.11,15.62-.07,23.78-.07-.35,.77-.57,1.39-.9,1.95-7.7,13.06-15.45,26.09-23.09,39.18-.71,1.22-1.14,2.79-1.17,4.21-.13,5.4-.05,10.8-.05,16.41Z"/></g><g><path d="M506.1,91.24V29.74c.79-.05,1.49-.13,2.18-.13,10.92,0,21.83-.08,32.75,.03,5.66,.06,11.23,.91,16.56,3.01,7.79,3.06,12.87,8.64,15.08,16.63,2,7.24,2.04,14.59,.14,21.88-2.87,10.98-10.5,16.84-21.21,19.02-3.87,.79-7.88,1.13-11.83,1.19-10.68,.16-21.35,.06-32.03,.05-.53,0-1.06-.11-1.63-.18Zm24.65-41.64v21.55c2.79,0,5.4,0,8.02,0,7.75,0,11.45-4.1,10.73-11.89-.47-5.13-2.64-8.45-6.61-8.99-3.97-.55-8.03-.46-12.14-.66Z"/><path d="M647.45,91.24V29.8h58.58v18.95h-34.08v4.19h32.72v15.24h-32.73v3.92h34.06v19.14h-58.54Z"/><path d="M644.45,29.6c-2.78,4.75-5.33,9.12-7.9,13.47-5.52,9.36-11.08,18.7-16.56,28.09-.52,.9-.81,2.07-.82,3.11-.08,5.63-.04,11.25-.04,17.01h-24.37c0-3-.3-6.1,.06-9.12,.81-6.83-1.43-12.52-5.06-18.23-6.85-10.77-13.09-21.93-19.59-32.93-.19-.33-.34-.69-.7-1.41h4.88c6.13,0,12.27,.05,18.4-.03,1.52-.02,2.38,.35,3.14,1.79,3.02,5.75,6.21,11.42,9.39,17.09,.35,.62,1.13,1.53,1.54,1.45,.68-.13,1.42-.85,1.79-1.52,3.23-5.73,6.36-11.53,9.61-17.25,.38-.68,1.33-1.46,2.03-1.47,7.88-.1,15.77-.07,24.2-.07Z"/></g><g><path d="M0,0H117.7V1.26c0,38.34,0,76.69,0,115.03,0,.37-.06,.73-.1,1.1H0V0ZM6,5.94V111.42H111.69V5.94H6Z"/><path d="M49.75,53.83h-6.13c0-.39,0-.74,0-1.1,0-3.8,.03-7.6-.01-11.39-.04-3.41-2.15-6.31-5.32-7.11-3.48-.88-7.13,0-8.96,3.05-.57,.96-1.05,2.11-1.14,3.2-.18,2.15-.05,4.33-.05,6.58h4.89v-6.14h5.53v12.92H21.79c-.04-.15-.13-.31-.12-.46,.04-4.44-.14-8.9,.18-13.32,.58-8.04,6.97-13.77,15.21-13.04,6.85,.6,12.11,5.52,12.62,12.37,.36,4.77,.07,9.59,.07,14.44Z"/><path d="M44.82,69.18h27.98c.05,.07,.13,.12,.12,.17-.05,4.17,.17,8.36-.23,12.49-.65,6.59-5.66,11.5-12.06,12.19-8.34,.9-15.27-4.72-15.77-13.07-.24-3.88-.04-7.78-.04-11.78Zm6.3,6.75c0,1.43-.08,2.82,.02,4.19,.2,2.92,1.5,5.23,4.28,6.37,2.91,1.19,5.81,1.03,8.37-.93,3.27-2.5,2.9-6.11,2.81-9.63h-15.47Z"/><path d="M85.57,46.91v6.91h-6.82c0-1.36-.14-2.76,.03-4.11,.26-2.03-.34-3-2.42-3.82-4.71-1.86-7.23-5.74-8.05-10.66-.31-1.84-.23-3.75-.34-5.69h6.42c0,1.1-.06,2.21,.01,3.31,.18,2.85,1.29,5.21,3.94,6.53,4.87,2.41,11.58-.14,11.55-6.86,0-.97,0-1.95,0-2.97h6.25c.8,6.85-1.66,14.86-10.58,17.36Z"/></g></svg>